<mxfile host="app.diagrams.net" modified="2020-12-18T10:53:13.518Z" agent="5.0 (Windows NT 10.0; WOW64) AppleWebKit/537.36 (KHTML, like Gecko) Chrome/87.0.4280.88 Safari/537.36" etag="6m6B4skoo11Pi8yyVnYK" version="14.0.4" type="github">
  <diagram id="dO6tAKvJiPSVII-vZ6FS" name="Page-1">
    <mxGraphModel dx="1865" dy="1661" grid="1" gridSize="10" guides="1" tooltips="1" connect="1" arrows="1" fold="1" page="1" pageScale="1" pageWidth="827" pageHeight="1169" math="0" shadow="0">
      <root>
        <mxCell id="0" />
        <mxCell id="1" parent="0" />
        <mxCell id="9sRZHM92yr7rH6drEYQw-5" value="" style="rounded=1;arcSize=10;dashed=1;strokeColor=#000000;fillColor=none;gradientColor=none;dashPattern=8 3 1 3;strokeWidth=2;" vertex="1" parent="1">
          <mxGeometry x="-85" y="-20" width="205" height="330" as="geometry" />
        </mxCell>
        <mxCell id="9sRZHM92yr7rH6drEYQw-6" value="" style="rounded=1;arcSize=10;dashed=1;strokeColor=#000000;fillColor=none;gradientColor=none;dashPattern=8 3 1 3;strokeWidth=2;" vertex="1" parent="1">
          <mxGeometry x="130" y="-20" width="590" height="330" as="geometry" />
        </mxCell>
        <mxCell id="9sRZHM92yr7rH6drEYQw-7" value="Original Train Data" style="shape=ext;rounded=1;html=1;whiteSpace=wrap;" vertex="1" parent="1">
          <mxGeometry x="-60" y="40" width="60" height="40" as="geometry" />
        </mxCell>
        <mxCell id="9sRZHM92yr7rH6drEYQw-8" value="Train Data" style="shape=ext;rounded=1;html=1;whiteSpace=wrap;" vertex="1" parent="1">
          <mxGeometry x="-60" y="110" width="60" height="30" as="geometry" />
        </mxCell>
        <mxCell id="9sRZHM92yr7rH6drEYQw-9" value="Test Data" style="shape=ext;rounded=1;html=1;whiteSpace=wrap;" vertex="1" parent="1">
          <mxGeometry x="-60" y="250" width="60" height="30" as="geometry" />
        </mxCell>
        <mxCell id="9sRZHM92yr7rH6drEYQw-10" value="Val Data" style="shape=ext;rounded=1;html=1;whiteSpace=wrap;" vertex="1" parent="1">
          <mxGeometry x="-60" y="180" width="60" height="30" as="geometry" />
        </mxCell>
        <mxCell id="9sRZHM92yr7rH6drEYQw-11" value="New Train Data" style="shape=ext;rounded=1;html=1;whiteSpace=wrap;" vertex="1" parent="1">
          <mxGeometry x="30" y="140" width="70" height="30" as="geometry" />
        </mxCell>
        <mxCell id="9sRZHM92yr7rH6drEYQw-12" value="" style="html=1;shape=mxgraph.flowchart.annotation_2;align=left;labelPosition=right;direction=north;rotation=-90;" vertex="1" parent="1">
          <mxGeometry x="-21.25" y="146.25" width="67.5" height="20" as="geometry" />
        </mxCell>
        <mxCell id="9sRZHM92yr7rH6drEYQw-14" value="" style="endArrow=block;endFill=1;endSize=6;html=1;" edge="1" parent="1">
          <mxGeometry width="100" relative="1" as="geometry">
            <mxPoint x="20" y="156" as="sourcePoint" />
            <mxPoint x="30" y="156" as="targetPoint" />
            <Array as="points">
              <mxPoint x="20" y="156" />
            </Array>
          </mxGeometry>
        </mxCell>
        <mxCell id="9sRZHM92yr7rH6drEYQw-15" value="Stage 1" style="text;html=1;strokeColor=none;fillColor=none;align=center;verticalAlign=middle;whiteSpace=wrap;rounded=0;" vertex="1" parent="1">
          <mxGeometry x="-21.25" y="-5" width="60" height="20" as="geometry" />
        </mxCell>
        <mxCell id="9sRZHM92yr7rH6drEYQw-16" value="Test Data" style="shape=ext;rounded=1;html=1;whiteSpace=wrap;" vertex="1" parent="1">
          <mxGeometry x="30" y="250" width="70" height="30" as="geometry" />
        </mxCell>
        <mxCell id="9sRZHM92yr7rH6drEYQw-17" value="" style="endArrow=block;endFill=1;endSize=6;html=1;exitX=1;exitY=0.5;exitDx=0;exitDy=0;entryX=0;entryY=0.5;entryDx=0;entryDy=0;" edge="1" parent="1" source="9sRZHM92yr7rH6drEYQw-9" target="9sRZHM92yr7rH6drEYQw-16">
          <mxGeometry width="100" relative="1" as="geometry">
            <mxPoint y="244.5" as="sourcePoint" />
            <mxPoint x="30" y="245" as="targetPoint" />
          </mxGeometry>
        </mxCell>
        <mxCell id="9sRZHM92yr7rH6drEYQw-19" value="New Test Data" style="shape=ext;rounded=1;html=1;whiteSpace=wrap;" vertex="1" parent="1">
          <mxGeometry x="170" y="250" width="70" height="30" as="geometry" />
        </mxCell>
        <mxCell id="9sRZHM92yr7rH6drEYQw-20" value="" style="endArrow=block;endFill=1;endSize=6;html=1;" edge="1" parent="1">
          <mxGeometry width="100" relative="1" as="geometry">
            <mxPoint x="100" y="155.75" as="sourcePoint" />
            <mxPoint x="170" y="156.1388888888889" as="targetPoint" />
          </mxGeometry>
        </mxCell>
        <mxCell id="9sRZHM92yr7rH6drEYQw-22" value="split" style="text;html=1;strokeColor=none;fillColor=none;align=center;verticalAlign=middle;whiteSpace=wrap;rounded=0;" vertex="1" parent="1">
          <mxGeometry x="126" y="134.25" width="40" height="20" as="geometry" />
        </mxCell>
        <mxCell id="9sRZHM92yr7rH6drEYQw-35" value="" style="shape=ext;rounded=1;html=1;whiteSpace=wrap;" vertex="1" parent="1">
          <mxGeometry x="171" y="30" width="70" height="200" as="geometry" />
        </mxCell>
        <mxCell id="9sRZHM92yr7rH6drEYQw-36" value="" style="endArrow=none;html=1;rounded=0;" edge="1" parent="1">
          <mxGeometry relative="1" as="geometry">
            <mxPoint x="171" y="70.25" as="sourcePoint" />
            <mxPoint x="241" y="70" as="targetPoint" />
          </mxGeometry>
        </mxCell>
        <mxCell id="9sRZHM92yr7rH6drEYQw-37" value="New Train Data part1" style="text;html=1;strokeColor=none;fillColor=none;align=center;verticalAlign=middle;whiteSpace=wrap;rounded=0;" vertex="1" parent="1">
          <mxGeometry x="171" y="40" width="70" height="30" as="geometry" />
        </mxCell>
        <mxCell id="9sRZHM92yr7rH6drEYQw-38" value="New Train Data part3&lt;span style=&quot;color: rgba(0 , 0 , 0 , 0) ; font-family: monospace ; font-size: 0px&quot;&gt;%3CmxGraphModel%3E%3Croot%3E%3CmxCell%20id%3D%220%22%2F%3E%3CmxCell%20id%3D%221%22%20parent%3D%220%22%2F%3E%3CmxCell%20id%3D%222%22%20value%3D%22%22%20style%3D%22endArrow%3Dnone%3Bhtml%3D1%3Brounded%3D0%3B%22%20edge%3D%221%22%20parent%3D%221%22%3E%3CmxGeometry%20relative%3D%221%22%20as%3D%22geometry%22%3E%3CmxPoint%20x%3D%22270%22%20y%3D%2271%22%20as%3D%22sourcePoint%22%2F%3E%3CmxPoint%20x%3D%22340%22%20y%3D%2270.75%22%20as%3D%22targetPoint%22%2F%3E%3C%2FmxGeometry%3E%3C%2FmxCell%3E%3C%2Froot%3E%3C%2FmxGraphModel%3E&lt;/span&gt;" style="text;html=1;strokeColor=none;fillColor=none;align=center;verticalAlign=middle;whiteSpace=wrap;rounded=0;" vertex="1" parent="1">
          <mxGeometry x="171" y="116.25" width="70" height="30" as="geometry" />
        </mxCell>
        <mxCell id="9sRZHM92yr7rH6drEYQw-39" value="New Train Data part2" style="text;html=1;strokeColor=none;fillColor=none;align=center;verticalAlign=middle;whiteSpace=wrap;rounded=0;" vertex="1" parent="1">
          <mxGeometry x="170" y="80" width="70" height="30" as="geometry" />
        </mxCell>
        <mxCell id="9sRZHM92yr7rH6drEYQw-40" value="" style="endArrow=none;html=1;rounded=0;" edge="1" parent="1">
          <mxGeometry relative="1" as="geometry">
            <mxPoint x="171" y="110.25" as="sourcePoint" />
            <mxPoint x="241" y="110" as="targetPoint" />
          </mxGeometry>
        </mxCell>
        <mxCell id="9sRZHM92yr7rH6drEYQw-41" value="" style="endArrow=none;html=1;rounded=0;" edge="1" parent="1">
          <mxGeometry relative="1" as="geometry">
            <mxPoint x="171" y="150.25" as="sourcePoint" />
            <mxPoint x="241" y="150" as="targetPoint" />
          </mxGeometry>
        </mxCell>
        <mxCell id="9sRZHM92yr7rH6drEYQw-43" value="" style="endArrow=none;html=1;rounded=0;" edge="1" parent="1">
          <mxGeometry relative="1" as="geometry">
            <mxPoint x="171" y="190.25" as="sourcePoint" />
            <mxPoint x="241" y="190" as="targetPoint" />
          </mxGeometry>
        </mxCell>
        <mxCell id="9sRZHM92yr7rH6drEYQw-44" value="New Train Data part4&lt;span style=&quot;color: rgba(0 , 0 , 0 , 0) ; font-family: monospace ; font-size: 0px&quot;&gt;%3CmxGraphModel%3E%3Croot%3E%3CmxCell%20id%3D%220%22%2F%3E%3CmxCell%20id%3D%221%22%20parent%3D%220%22%2F%3E%3CmxCell%20id%3D%222%22%20value%3D%22%22%20style%3D%22endArrow%3Dnone%3Bhtml%3D1%3Brounded%3D0%3B%22%20edge%3D%221%22%20parent%3D%221%22%3E%3CmxGeometry%20relative%3D%221%22%20as%3D%22geometry%22%3E%3CmxPoint%20x%3D%22270%22%20y%3D%2271%22%20as%3D%22sourcePoint%22%2F%3E%3CmxPoint%20x%3D%22340%22%20y%3D%2270.75%22%20as%3D%22targetPoint%22%2F%3E%3C%2FmxGeometry%3E%3C%2FmxCell%3E%3C%2Froot%3E%3C%2FmxGraphModel%3E&lt;/span&gt;" style="text;html=1;strokeColor=none;fillColor=none;align=center;verticalAlign=middle;whiteSpace=wrap;rounded=0;" vertex="1" parent="1">
          <mxGeometry x="171" y="160" width="70" height="30" as="geometry" />
        </mxCell>
        <mxCell id="9sRZHM92yr7rH6drEYQw-45" value="New Train Data part5&lt;span style=&quot;color: rgba(0 , 0 , 0 , 0) ; font-family: monospace ; font-size: 0px&quot;&gt;%3CmxGraphModel%3E%3Croot%3E%3CmxCell%20id%3D%220%22%2F%3E%3CmxCell%20id%3D%221%22%20parent%3D%220%22%2F%3E%3CmxCell%20id%3D%222%22%20value%3D%22%22%20style%3D%22endArrow%3Dnone%3Bhtml%3D1%3Brounded%3D0%3B%22%20edge%3D%221%22%20parent%3D%221%22%3E%3CmxGeometry%20relative%3D%221%22%20as%3D%22geometry%22%3E%3CmxPoint%20x%3D%22270%22%20y%3D%2271%22%20as%3D%22sourcePoint%22%2F%3E%3CmxPoint%20x%3D%22340%22%20y%3D%2270.75%22%20as%3D%22targetPoint%22%2F%3E%3C%2FmxGeometry%3E%3C%2FmxCell%3E%3C%2Froot%3E%3C%2FmxGraphModel%3E&lt;/span&gt;" style="text;html=1;strokeColor=none;fillColor=none;align=center;verticalAlign=middle;whiteSpace=wrap;rounded=0;" vertex="1" parent="1">
          <mxGeometry x="170" y="200" width="70" height="30" as="geometry" />
        </mxCell>
        <mxCell id="9sRZHM92yr7rH6drEYQw-47" value="" style="endArrow=classic;html=1;" edge="1" parent="1" target="9sRZHM92yr7rH6drEYQw-19">
          <mxGeometry width="50" height="50" relative="1" as="geometry">
            <mxPoint x="100" y="266" as="sourcePoint" />
            <mxPoint x="150" y="220" as="targetPoint" />
          </mxGeometry>
        </mxCell>
        <mxCell id="9sRZHM92yr7rH6drEYQw-48" value="" style="shape=ext;rounded=1;html=1;whiteSpace=wrap;" vertex="1" parent="1">
          <mxGeometry x="260" y="30" width="70" height="200" as="geometry" />
        </mxCell>
        <mxCell id="9sRZHM92yr7rH6drEYQw-49" value="" style="shape=ext;rounded=1;html=1;whiteSpace=wrap;" vertex="1" parent="1">
          <mxGeometry x="350" y="30" width="70" height="200" as="geometry" />
        </mxCell>
        <mxCell id="9sRZHM92yr7rH6drEYQw-50" value="" style="shape=ext;rounded=1;html=1;whiteSpace=wrap;" vertex="1" parent="1">
          <mxGeometry x="440" y="30" width="70" height="200" as="geometry" />
        </mxCell>
        <mxCell id="9sRZHM92yr7rH6drEYQw-51" value="" style="shape=ext;rounded=1;html=1;whiteSpace=wrap;" vertex="1" parent="1">
          <mxGeometry x="530" y="30" width="70" height="200" as="geometry" />
        </mxCell>
        <mxCell id="9sRZHM92yr7rH6drEYQw-52" value="" style="shape=ext;rounded=1;html=1;whiteSpace=wrap;" vertex="1" parent="1">
          <mxGeometry x="620" y="30" width="70" height="200" as="geometry" />
        </mxCell>
        <mxCell id="9sRZHM92yr7rH6drEYQw-53" value="" style="line;strokeWidth=1;rotatable=0;dashed=0;labelPosition=right;align=left;verticalAlign=middle;spacingTop=0;spacingLeft=6;points=[];portConstraint=eastwest;" vertex="1" parent="1">
          <mxGeometry x="260" y="65" width="70" height="10" as="geometry" />
        </mxCell>
        <mxCell id="9sRZHM92yr7rH6drEYQw-54" value="" style="line;strokeWidth=1;rotatable=0;dashed=0;labelPosition=right;align=left;verticalAlign=middle;spacingTop=0;spacingLeft=6;points=[];portConstraint=eastwest;" vertex="1" parent="1">
          <mxGeometry x="350" y="65" width="70" height="10" as="geometry" />
        </mxCell>
        <mxCell id="9sRZHM92yr7rH6drEYQw-55" value="" style="line;strokeWidth=1;rotatable=0;dashed=0;labelPosition=right;align=left;verticalAlign=middle;spacingTop=0;spacingLeft=6;points=[];portConstraint=eastwest;" vertex="1" parent="1">
          <mxGeometry x="260" y="104.25" width="70" height="10" as="geometry" />
        </mxCell>
        <mxCell id="9sRZHM92yr7rH6drEYQw-56" value="" style="line;strokeWidth=1;rotatable=0;dashed=0;labelPosition=right;align=left;verticalAlign=middle;spacingTop=0;spacingLeft=6;points=[];portConstraint=eastwest;" vertex="1" parent="1">
          <mxGeometry x="260" y="144.25" width="70" height="10" as="geometry" />
        </mxCell>
        <mxCell id="9sRZHM92yr7rH6drEYQw-57" value="" style="line;strokeWidth=1;rotatable=0;dashed=0;labelPosition=right;align=left;verticalAlign=middle;spacingTop=0;spacingLeft=6;points=[];portConstraint=eastwest;" vertex="1" parent="1">
          <mxGeometry x="260" y="184" width="70" height="10" as="geometry" />
        </mxCell>
        <mxCell id="9sRZHM92yr7rH6drEYQw-58" value="" style="line;strokeWidth=1;rotatable=0;dashed=0;labelPosition=right;align=left;verticalAlign=middle;spacingTop=0;spacingLeft=6;points=[];portConstraint=eastwest;" vertex="1" parent="1">
          <mxGeometry x="350" y="104.25" width="70" height="10" as="geometry" />
        </mxCell>
        <mxCell id="9sRZHM92yr7rH6drEYQw-59" value="" style="line;strokeWidth=1;rotatable=0;dashed=0;labelPosition=right;align=left;verticalAlign=middle;spacingTop=0;spacingLeft=6;points=[];portConstraint=eastwest;" vertex="1" parent="1">
          <mxGeometry x="350" y="144.25" width="70" height="10" as="geometry" />
        </mxCell>
        <mxCell id="9sRZHM92yr7rH6drEYQw-60" value="" style="line;strokeWidth=1;rotatable=0;dashed=0;labelPosition=right;align=left;verticalAlign=middle;spacingTop=0;spacingLeft=6;points=[];portConstraint=eastwest;" vertex="1" parent="1">
          <mxGeometry x="350" y="184" width="70" height="10" as="geometry" />
        </mxCell>
        <mxCell id="9sRZHM92yr7rH6drEYQw-61" value="" style="line;strokeWidth=1;rotatable=0;dashed=0;labelPosition=right;align=left;verticalAlign=middle;spacingTop=0;spacingLeft=6;points=[];portConstraint=eastwest;" vertex="1" parent="1">
          <mxGeometry x="530" y="65" width="70" height="10" as="geometry" />
        </mxCell>
        <mxCell id="9sRZHM92yr7rH6drEYQw-62" value="" style="line;strokeWidth=1;rotatable=0;dashed=0;labelPosition=right;align=left;verticalAlign=middle;spacingTop=0;spacingLeft=6;points=[];portConstraint=eastwest;" vertex="1" parent="1">
          <mxGeometry x="440" y="65" width="70" height="10" as="geometry" />
        </mxCell>
        <mxCell id="9sRZHM92yr7rH6drEYQw-63" value="" style="line;strokeWidth=1;rotatable=0;dashed=0;labelPosition=right;align=left;verticalAlign=middle;spacingTop=0;spacingLeft=6;points=[];portConstraint=eastwest;" vertex="1" parent="1">
          <mxGeometry x="620" y="65" width="70" height="10" as="geometry" />
        </mxCell>
        <mxCell id="9sRZHM92yr7rH6drEYQw-64" value="" style="line;strokeWidth=1;rotatable=0;dashed=0;labelPosition=right;align=left;verticalAlign=middle;spacingTop=0;spacingLeft=6;points=[];portConstraint=eastwest;" vertex="1" parent="1">
          <mxGeometry x="440" y="144.25" width="70" height="10" as="geometry" />
        </mxCell>
        <mxCell id="9sRZHM92yr7rH6drEYQw-65" value="" style="line;strokeWidth=1;rotatable=0;dashed=0;labelPosition=right;align=left;verticalAlign=middle;spacingTop=0;spacingLeft=6;points=[];portConstraint=eastwest;" vertex="1" parent="1">
          <mxGeometry x="440" y="104.25" width="70" height="10" as="geometry" />
        </mxCell>
        <mxCell id="9sRZHM92yr7rH6drEYQw-66" value="" style="line;strokeWidth=1;rotatable=0;dashed=0;labelPosition=right;align=left;verticalAlign=middle;spacingTop=0;spacingLeft=6;points=[];portConstraint=eastwest;" vertex="1" parent="1">
          <mxGeometry x="440" y="184" width="70" height="10" as="geometry" />
        </mxCell>
        <mxCell id="9sRZHM92yr7rH6drEYQw-67" value="" style="line;strokeWidth=1;rotatable=0;dashed=0;labelPosition=right;align=left;verticalAlign=middle;spacingTop=0;spacingLeft=6;points=[];portConstraint=eastwest;" vertex="1" parent="1">
          <mxGeometry x="530" y="104.25" width="70" height="10" as="geometry" />
        </mxCell>
        <mxCell id="9sRZHM92yr7rH6drEYQw-68" value="" style="line;strokeWidth=1;rotatable=0;dashed=0;labelPosition=right;align=left;verticalAlign=middle;spacingTop=0;spacingLeft=6;points=[];portConstraint=eastwest;" vertex="1" parent="1">
          <mxGeometry x="530" y="144.25" width="70" height="10" as="geometry" />
        </mxCell>
        <mxCell id="9sRZHM92yr7rH6drEYQw-69" value="" style="line;strokeWidth=1;rotatable=0;dashed=0;labelPosition=right;align=left;verticalAlign=middle;spacingTop=0;spacingLeft=6;points=[];portConstraint=eastwest;" vertex="1" parent="1">
          <mxGeometry x="530" y="184" width="70" height="10" as="geometry" />
        </mxCell>
        <mxCell id="9sRZHM92yr7rH6drEYQw-70" value="" style="line;strokeWidth=1;rotatable=0;dashed=0;labelPosition=right;align=left;verticalAlign=middle;spacingTop=0;spacingLeft=6;points=[];portConstraint=eastwest;" vertex="1" parent="1">
          <mxGeometry x="620" y="104.25" width="70" height="10" as="geometry" />
        </mxCell>
        <mxCell id="9sRZHM92yr7rH6drEYQw-71" value="" style="line;strokeWidth=1;rotatable=0;dashed=0;labelPosition=right;align=left;verticalAlign=middle;spacingTop=0;spacingLeft=6;points=[];portConstraint=eastwest;" vertex="1" parent="1">
          <mxGeometry x="620" y="184" width="70" height="10" as="geometry" />
        </mxCell>
        <mxCell id="9sRZHM92yr7rH6drEYQw-72" value="" style="line;strokeWidth=1;rotatable=0;dashed=0;labelPosition=right;align=left;verticalAlign=middle;spacingTop=0;spacingLeft=6;points=[];portConstraint=eastwest;" vertex="1" parent="1">
          <mxGeometry x="620" y="134.25" width="70" height="35.75" as="geometry" />
        </mxCell>
        <mxCell id="9sRZHM92yr7rH6drEYQw-73" value="Train" style="text;html=1;strokeColor=none;fillColor=none;align=center;verticalAlign=middle;whiteSpace=wrap;rounded=0;" vertex="1" parent="1">
          <mxGeometry x="260" y="40" width="70" height="30" as="geometry" />
        </mxCell>
        <mxCell id="9sRZHM92yr7rH6drEYQw-74" value="Train" style="text;html=1;strokeColor=none;fillColor=none;align=center;verticalAlign=middle;whiteSpace=wrap;rounded=0;" vertex="1" parent="1">
          <mxGeometry x="260" y="116.25" width="70" height="30" as="geometry" />
        </mxCell>
        <mxCell id="9sRZHM92yr7rH6drEYQw-75" value="Train" style="text;html=1;strokeColor=none;fillColor=none;align=center;verticalAlign=middle;whiteSpace=wrap;rounded=0;" vertex="1" parent="1">
          <mxGeometry x="260" y="154.25" width="70" height="30" as="geometry" />
        </mxCell>
        <mxCell id="9sRZHM92yr7rH6drEYQw-76" value="Train" style="text;html=1;strokeColor=none;fillColor=none;align=center;verticalAlign=middle;whiteSpace=wrap;rounded=0;" vertex="1" parent="1">
          <mxGeometry x="260" y="70" width="70" height="30" as="geometry" />
        </mxCell>
        <mxCell id="9sRZHM92yr7rH6drEYQw-77" value="Train" style="text;html=1;strokeColor=none;fillColor=none;align=center;verticalAlign=middle;whiteSpace=wrap;rounded=0;" vertex="1" parent="1">
          <mxGeometry x="350" y="74.25" width="70" height="30" as="geometry" />
        </mxCell>
        <mxCell id="9sRZHM92yr7rH6drEYQw-78" value="Train" style="text;html=1;strokeColor=none;fillColor=none;align=center;verticalAlign=middle;whiteSpace=wrap;rounded=0;" vertex="1" parent="1">
          <mxGeometry x="530" y="40" width="70" height="30" as="geometry" />
        </mxCell>
        <mxCell id="9sRZHM92yr7rH6drEYQw-79" value="Train" style="text;html=1;strokeColor=none;fillColor=none;align=center;verticalAlign=middle;whiteSpace=wrap;rounded=0;" vertex="1" parent="1">
          <mxGeometry x="440" y="40" width="70" height="30" as="geometry" />
        </mxCell>
        <mxCell id="9sRZHM92yr7rH6drEYQw-80" value="Train" style="text;html=1;strokeColor=none;fillColor=none;align=center;verticalAlign=middle;whiteSpace=wrap;rounded=0;" vertex="1" parent="1">
          <mxGeometry x="350" y="40" width="70" height="30" as="geometry" />
        </mxCell>
        <mxCell id="9sRZHM92yr7rH6drEYQw-81" value="Train" style="text;html=1;strokeColor=none;fillColor=none;align=center;verticalAlign=middle;whiteSpace=wrap;rounded=0;" vertex="1" parent="1">
          <mxGeometry x="440" y="75" width="70" height="30" as="geometry" />
        </mxCell>
        <mxCell id="9sRZHM92yr7rH6drEYQw-82" value="Train" style="text;html=1;strokeColor=none;fillColor=none;align=center;verticalAlign=middle;whiteSpace=wrap;rounded=0;" vertex="1" parent="1">
          <mxGeometry x="530" y="194" width="70" height="30" as="geometry" />
        </mxCell>
        <mxCell id="9sRZHM92yr7rH6drEYQw-83" value="Train" style="text;html=1;strokeColor=none;fillColor=none;align=center;verticalAlign=middle;whiteSpace=wrap;rounded=0;" vertex="1" parent="1">
          <mxGeometry x="350" y="116.25" width="70" height="30" as="geometry" />
        </mxCell>
        <mxCell id="9sRZHM92yr7rH6drEYQw-84" value="Train" style="text;html=1;strokeColor=none;fillColor=none;align=center;verticalAlign=middle;whiteSpace=wrap;rounded=0;" vertex="1" parent="1">
          <mxGeometry x="440" y="194" width="70" height="30" as="geometry" />
        </mxCell>
        <mxCell id="9sRZHM92yr7rH6drEYQw-85" value="Train" style="text;html=1;strokeColor=none;fillColor=none;align=center;verticalAlign=middle;whiteSpace=wrap;rounded=0;" vertex="1" parent="1">
          <mxGeometry x="530" y="116.25" width="70" height="30" as="geometry" />
        </mxCell>
        <mxCell id="9sRZHM92yr7rH6drEYQw-86" value="Train" style="text;html=1;strokeColor=none;fillColor=none;align=center;verticalAlign=middle;whiteSpace=wrap;rounded=0;" vertex="1" parent="1">
          <mxGeometry x="344" y="194" width="70" height="30" as="geometry" />
        </mxCell>
        <mxCell id="9sRZHM92yr7rH6drEYQw-87" value="Train" style="text;html=1;strokeColor=none;fillColor=none;align=center;verticalAlign=middle;whiteSpace=wrap;rounded=0;" vertex="1" parent="1">
          <mxGeometry x="440" y="160" width="70" height="30" as="geometry" />
        </mxCell>
        <mxCell id="9sRZHM92yr7rH6drEYQw-88" value="Train" style="text;html=1;strokeColor=none;fillColor=none;align=center;verticalAlign=middle;whiteSpace=wrap;rounded=0;" vertex="1" parent="1">
          <mxGeometry x="530" y="154" width="70" height="30" as="geometry" />
        </mxCell>
        <mxCell id="9sRZHM92yr7rH6drEYQw-89" value="Predict" style="text;html=1;strokeColor=#6c8ebf;fillColor=#dae8fc;align=center;verticalAlign=middle;whiteSpace=wrap;rounded=0;" vertex="1" parent="1">
          <mxGeometry x="260" y="190" width="70" height="40" as="geometry" />
        </mxCell>
        <mxCell id="9sRZHM92yr7rH6drEYQw-90" value="Predict" style="text;html=1;strokeColor=#6c8ebf;fillColor=#dae8fc;align=center;verticalAlign=middle;whiteSpace=wrap;rounded=0;" vertex="1" parent="1">
          <mxGeometry x="350" y="150" width="70" height="40" as="geometry" />
        </mxCell>
        <mxCell id="9sRZHM92yr7rH6drEYQw-91" value="Predict" style="text;html=1;strokeColor=#6c8ebf;fillColor=#dae8fc;align=center;verticalAlign=middle;whiteSpace=wrap;rounded=0;" vertex="1" parent="1">
          <mxGeometry x="440" y="110" width="70" height="40" as="geometry" />
        </mxCell>
        <mxCell id="9sRZHM92yr7rH6drEYQw-92" value="Predict" style="text;html=1;strokeColor=#6c8ebf;fillColor=#dae8fc;align=center;verticalAlign=middle;whiteSpace=wrap;rounded=0;" vertex="1" parent="1">
          <mxGeometry x="530" y="70" width="70" height="40" as="geometry" />
        </mxCell>
        <mxCell id="9sRZHM92yr7rH6drEYQw-95" value="Predict" style="text;html=1;strokeColor=#6c8ebf;fillColor=#dae8fc;align=center;verticalAlign=middle;whiteSpace=wrap;rounded=0;" vertex="1" parent="1">
          <mxGeometry x="620" y="30" width="70" height="40" as="geometry" />
        </mxCell>
        <mxCell id="9sRZHM92yr7rH6drEYQw-96" value="Train" style="text;html=1;strokeColor=none;fillColor=none;align=center;verticalAlign=middle;whiteSpace=wrap;rounded=0;" vertex="1" parent="1">
          <mxGeometry x="620" y="74.25" width="70" height="30" as="geometry" />
        </mxCell>
        <mxCell id="9sRZHM92yr7rH6drEYQw-97" value="Train" style="text;html=1;strokeColor=none;fillColor=none;align=center;verticalAlign=middle;whiteSpace=wrap;rounded=0;" vertex="1" parent="1">
          <mxGeometry x="620" y="120" width="70" height="30" as="geometry" />
        </mxCell>
        <mxCell id="9sRZHM92yr7rH6drEYQw-98" value="Train" style="text;html=1;strokeColor=none;fillColor=none;align=center;verticalAlign=middle;whiteSpace=wrap;rounded=0;" vertex="1" parent="1">
          <mxGeometry x="620" y="155" width="70" height="30" as="geometry" />
        </mxCell>
        <mxCell id="9sRZHM92yr7rH6drEYQw-99" value="Train" style="text;html=1;strokeColor=none;fillColor=none;align=center;verticalAlign=middle;whiteSpace=wrap;rounded=0;" vertex="1" parent="1">
          <mxGeometry x="620" y="194" width="70" height="30" as="geometry" />
        </mxCell>
        <mxCell id="9sRZHM92yr7rH6drEYQw-100" value="predictions" style="shape=ext;rounded=1;html=1;whiteSpace=wrap;" vertex="1" parent="1">
          <mxGeometry x="260" y="330" width="80" height="40" as="geometry" />
        </mxCell>
        <mxCell id="9sRZHM92yr7rH6drEYQw-101" value="predictions" style="shape=ext;rounded=1;html=1;whiteSpace=wrap;" vertex="1" parent="1">
          <mxGeometry x="350" y="330" width="80" height="40" as="geometry" />
        </mxCell>
        <mxCell id="9sRZHM92yr7rH6drEYQw-102" value="predictions" style="shape=ext;rounded=1;html=1;whiteSpace=wrap;" vertex="1" parent="1">
          <mxGeometry x="440" y="330" width="80" height="40" as="geometry" />
        </mxCell>
        <mxCell id="9sRZHM92yr7rH6drEYQw-103" value="predictions" style="shape=ext;rounded=1;html=1;whiteSpace=wrap;" vertex="1" parent="1">
          <mxGeometry x="530" y="330" width="80" height="40" as="geometry" />
        </mxCell>
        <mxCell id="9sRZHM92yr7rH6drEYQw-104" value="predictions" style="shape=ext;rounded=1;html=1;whiteSpace=wrap;" vertex="1" parent="1">
          <mxGeometry x="620" y="330" width="80" height="40" as="geometry" />
        </mxCell>
        <mxCell id="9sRZHM92yr7rH6drEYQw-105" value="" style="endArrow=block;endFill=1;endSize=6;html=1;exitX=0.5;exitY=1;exitDx=0;exitDy=0;" edge="1" parent="1" source="9sRZHM92yr7rH6drEYQw-89">
          <mxGeometry width="100" relative="1" as="geometry">
            <mxPoint x="200" y="400" as="sourcePoint" />
            <mxPoint x="295" y="330" as="targetPoint" />
          </mxGeometry>
        </mxCell>
        <mxCell id="9sRZHM92yr7rH6drEYQw-106" value="" style="endArrow=block;endFill=1;endSize=6;html=1;" edge="1" parent="1" source="9sRZHM92yr7rH6drEYQw-95">
          <mxGeometry width="100" relative="1" as="geometry">
            <mxPoint x="654.5" y="230" as="sourcePoint" />
            <mxPoint x="654.5" y="330" as="targetPoint" />
          </mxGeometry>
        </mxCell>
        <mxCell id="9sRZHM92yr7rH6drEYQw-107" value="" style="endArrow=block;endFill=1;endSize=6;html=1;exitX=0.564;exitY=1;exitDx=0;exitDy=0;exitPerimeter=0;" edge="1" parent="1" source="9sRZHM92yr7rH6drEYQw-92">
          <mxGeometry width="100" relative="1" as="geometry">
            <mxPoint x="569.5" y="230" as="sourcePoint" />
            <mxPoint x="569.5" y="330" as="targetPoint" />
          </mxGeometry>
        </mxCell>
        <mxCell id="9sRZHM92yr7rH6drEYQw-108" value="" style="endArrow=block;endFill=1;endSize=6;html=1;exitX=0.483;exitY=0.635;exitDx=0;exitDy=0;exitPerimeter=0;" edge="1" parent="1" source="9sRZHM92yr7rH6drEYQw-64">
          <mxGeometry width="100" relative="1" as="geometry">
            <mxPoint x="474.5" y="230" as="sourcePoint" />
            <mxPoint x="474.5" y="330" as="targetPoint" />
          </mxGeometry>
        </mxCell>
        <mxCell id="9sRZHM92yr7rH6drEYQw-109" value="" style="endArrow=block;endFill=1;endSize=6;html=1;exitX=0.5;exitY=1;exitDx=0;exitDy=0;" edge="1" parent="1" source="9sRZHM92yr7rH6drEYQw-90">
          <mxGeometry width="100" relative="1" as="geometry">
            <mxPoint x="384.5" y="230" as="sourcePoint" />
            <mxPoint x="384.5" y="330" as="targetPoint" />
          </mxGeometry>
        </mxCell>
        <mxCell id="9sRZHM92yr7rH6drEYQw-112" value="" style="rounded=1;arcSize=10;dashed=1;strokeColor=#000000;fillColor=none;gradientColor=none;dashPattern=8 3 1 3;strokeWidth=2;" vertex="1" parent="1">
          <mxGeometry x="130" y="320" width="587" height="70" as="geometry" />
        </mxCell>
        <mxCell id="9sRZHM92yr7rH6drEYQw-113" value="" style="endArrow=block;endFill=1;endSize=6;html=1;" edge="1" parent="1" source="9sRZHM92yr7rH6drEYQw-112">
          <mxGeometry width="100" relative="1" as="geometry">
            <mxPoint x="20" y="354.5" as="sourcePoint" />
            <mxPoint x="50" y="360" as="targetPoint" />
          </mxGeometry>
        </mxCell>
        <mxCell id="9sRZHM92yr7rH6drEYQw-115" value="Average" style="text;html=1;strokeColor=none;fillColor=none;align=center;verticalAlign=middle;whiteSpace=wrap;rounded=0;" vertex="1" parent="1">
          <mxGeometry x="70" y="340" width="40" height="20" as="geometry" />
        </mxCell>
        <mxCell id="9sRZHM92yr7rH6drEYQw-116" value="" style="rounded=1;whiteSpace=wrap;html=1;" vertex="1" parent="1">
          <mxGeometry x="-72.5" y="325" width="120" height="60" as="geometry" />
        </mxCell>
        <mxCell id="9sRZHM92yr7rH6drEYQw-117" value="Result" style="text;html=1;strokeColor=none;fillColor=none;align=center;verticalAlign=middle;whiteSpace=wrap;rounded=0;" vertex="1" parent="1">
          <mxGeometry x="-32.5" y="340" width="40" height="20" as="geometry" />
        </mxCell>
        <mxCell id="9sRZHM92yr7rH6drEYQw-119" value="Stage 2" style="text;html=1;strokeColor=none;fillColor=none;align=center;verticalAlign=middle;whiteSpace=wrap;rounded=0;" vertex="1" parent="1">
          <mxGeometry x="181" y="-5" width="60" height="20" as="geometry" />
        </mxCell>
        <mxCell id="9sRZHM92yr7rH6drEYQw-120" value="" style="rounded=1;whiteSpace=wrap;html=1;" vertex="1" parent="1">
          <mxGeometry x="446" y="-18" width="64" height="30" as="geometry" />
        </mxCell>
        <mxCell id="9sRZHM92yr7rH6drEYQw-121" value="model" style="text;html=1;strokeColor=none;fillColor=none;align=center;verticalAlign=middle;whiteSpace=wrap;rounded=0;" vertex="1" parent="1">
          <mxGeometry x="455" y="-12" width="40" height="20" as="geometry" />
        </mxCell>
        <mxCell id="9sRZHM92yr7rH6drEYQw-122" value="" style="endArrow=classic;html=1;entryX=0.5;entryY=0;entryDx=0;entryDy=0;exitX=0;exitY=0.5;exitDx=0;exitDy=0;" edge="1" parent="1" source="9sRZHM92yr7rH6drEYQw-120" target="9sRZHM92yr7rH6drEYQw-48">
          <mxGeometry width="50" height="50" relative="1" as="geometry">
            <mxPoint x="280" y="180" as="sourcePoint" />
            <mxPoint x="330" y="130" as="targetPoint" />
          </mxGeometry>
        </mxCell>
        <mxCell id="9sRZHM92yr7rH6drEYQw-123" value="" style="endArrow=classic;html=1;entryX=0.5;entryY=0;entryDx=0;entryDy=0;" edge="1" parent="1">
          <mxGeometry width="50" height="50" relative="1" as="geometry">
            <mxPoint x="445" as="sourcePoint" />
            <mxPoint x="383" y="30" as="targetPoint" />
          </mxGeometry>
        </mxCell>
        <mxCell id="9sRZHM92yr7rH6drEYQw-124" value="" style="endArrow=classic;html=1;" edge="1" parent="1">
          <mxGeometry width="50" height="50" relative="1" as="geometry">
            <mxPoint x="475" y="12" as="sourcePoint" />
            <mxPoint x="475" y="33" as="targetPoint" />
          </mxGeometry>
        </mxCell>
        <mxCell id="9sRZHM92yr7rH6drEYQw-125" value="" style="endArrow=classic;html=1;entryX=0.5;entryY=0;entryDx=0;entryDy=0;exitX=1;exitY=0.5;exitDx=0;exitDy=0;" edge="1" parent="1" source="9sRZHM92yr7rH6drEYQw-120" target="9sRZHM92yr7rH6drEYQw-51">
          <mxGeometry width="50" height="50" relative="1" as="geometry">
            <mxPoint x="476" y="30" as="sourcePoint" />
            <mxPoint x="325" y="60" as="targetPoint" />
          </mxGeometry>
        </mxCell>
        <mxCell id="9sRZHM92yr7rH6drEYQw-127" value="" style="endArrow=classic;html=1;entryX=0.5;entryY=0;entryDx=0;entryDy=0;exitX=1;exitY=0.5;exitDx=0;exitDy=0;" edge="1" parent="1" source="9sRZHM92yr7rH6drEYQw-120" target="9sRZHM92yr7rH6drEYQw-95">
          <mxGeometry width="50" height="50" relative="1" as="geometry">
            <mxPoint x="504" y="25" as="sourcePoint" />
            <mxPoint x="575" y="40" as="targetPoint" />
          </mxGeometry>
        </mxCell>
      </root>
    </mxGraphModel>
  </diagram>
</mxfile>
